<?xml version="1.0" encoding="UTF-8" standalone="no"?>
<!-- Created with Inkscape (http://www.inkscape.org/) -->

<svg
   width="2189mm"
   height="1500mm"
   viewBox="0 0 2189 1500"
   version="1.1"
   id="svg1"
   inkscape:version="1.4.2 (ebf0e94, 2025-05-08)"
   sodipodi:docname="sludge with custom font.svg"
   inkscape:export-filename="sludge with custom font.svg"
   inkscape:export-xdpi="96"
   inkscape:export-ydpi="96"
   xmlns:inkscape="http://www.inkscape.org/namespaces/inkscape"
   xmlns:sodipodi="http://sodipodi.sourceforge.net/DTD/sodipodi-0.dtd"
   xmlns="http://www.w3.org/2000/svg"
   xmlns:svg="http://www.w3.org/2000/svg">
  <sodipodi:namedview
     id="namedview1"
     pagecolor="#ffffff"
     bordercolor="#000000"
     borderopacity="0.25"
     inkscape:showpageshadow="2"
     inkscape:pageopacity="0.0"
     inkscape:pagecheckerboard="0"
     inkscape:deskcolor="#d1d1d1"
     inkscape:document-units="mm"
     showgrid="true"
     inkscape:zoom="0.061260517"
     inkscape:cx="5615.3624"
     inkscape:cy="4129.9031"
     inkscape:window-width="1036"
     inkscape:window-height="1248"
     inkscape:window-x="2592"
     inkscape:window-y="360"
     inkscape:window-maximized="0"
     inkscape:current-layer="layer1">
    <inkscape:grid
       id="grid1"
       units="mm"
       originx="0"
       originy="0"
       spacingx="31.25"
       spacingy="31.25"
       empcolor="#0099e5"
       empopacity="0.30196078"
       color="#0099e5"
       opacity="0.14901961"
       empspacing="4"
       enabled="true"
       visible="true" />
  </sodipodi:namedview>
  <defs
     id="defs1" />
  <g
     inkscape:label="Layer 1"
     inkscape:groupmode="layer"
     id="layer1">
    <g
       id="g45"
       transform="rotate(90,-109.61059,608.78147)" />
    <g
       id="g46"
       transform="translate(0.46925456,281.56995)" />
    <path
       id="path41"
       style="fill:#000000;stroke:#000000;stroke-width:0.680156"
       d="M 125.57857,750 V 719.04724 H 250.2893 375.00003 V 750 780.95273 H 250.2893 125.57857 Z m -9.03656,30.55136 C 86.430899,778.27017 58.389982,765.27003 37.317907,743.822 31.947651,738.35592 30.81351,737.08196 27.300536,732.56949 11.640462,712.45385 2.5409383,687.78307 1.3158395,662.11936 L 1.0782278,657.14181 H 32.086394 c 25.518234,0 31.008163,0.0845 31.008163,0.47736 0,2.16347 0.934392,9.10304 1.679565,12.47381 1.604848,7.25953 4.825134,14.85675 8.850926,20.88089 6.135552,9.18117 14.660155,16.71661 24.493005,21.65098 7.366977,3.69692 18.045457,6.42242 25.162937,6.42242 h 1.71904 V 750 780.95276 l -2.24948,-0.0507 c -1.2372,-0.0279 -4.03105,-0.18569 -6.20854,-0.35065 z m 9.17724,-61.73141 a 62.249996,62.750004 0 0 1 -62.249991,-62.75 m 62.249991,125.25 a 125,125 0 0 1 -124.99999544,-125 M 381.29854,719.47906 c 33.06023,2.6056 61.5656,16.0907 83.30515,39.40938 19.61015,21.03458 31.83748,49.05768 33.29037,76.29621 l 0.41275,7.73818 H 467.65026 436.9937 l -0.41752,-3.4192 c -0.89935,-7.36494 -2.77645,-15.17163 -4.8533,-20.18436 -4.39252,-10.6019 -13.07634,-21.3284 -22.3836,-27.64884 -8.94846,-6.07679 -22.03541,-10.63665 -30.56014,-10.64802 l -3.77912,-0.005 v -31.01734 -31.01736 z m -7.37766,61.663 a 62.249996,62.750004 0 0 1 62.25,62.75001 m -62.25,-125.25 a 125,125 0 0 1 125,125" />
    <g
       id="g47"
       transform="translate(-0.24997025,500)" />
    <g
       id="g51"
       transform="translate(-0.49998125,499.5)" />
    <rect
       style="fill:#000000;stroke:#000000;stroke-width:0.499833"
       id="rect51"
       width="62.500168"
       height="374.75018"
       x="562.49988"
       y="93.999916" />
    <rect
       style="fill:#000000;stroke:#000000;stroke-width:0.499999"
       id="rect52"
       width="62.5"
       height="375"
       x="1562.2499"
       y="93.500015" />
    <g
       id="g55"
       transform="rotate(180,812.55232,703.12504)" />
    <path
       id="rect55"
       style="stroke:#000000;stroke-width:0.547479"
       d="m 124.77377,499.77374 h 374.95252 v 62.45251 H 124.77377 Z M 0.58702153,617.37234 C 3.1926149,584.31211 16.677723,555.80674 39.996394,534.06719 61.030984,514.45704 89.054078,502.22971 116.29261,500.77682 l 7.73818,-0.41275 v 30.65655 30.65656 l -3.4192,0.41752 c -7.36494,0.89935 -15.17163,2.77645 -20.18436,4.8533 -10.601902,4.39252 -21.328401,13.07634 -27.648842,22.3836 -6.076786,8.94846 -10.636647,22.03541 -10.648024,30.56014 l -0.0051,3.77912 H 31.107966 0.09061264 Z M 62.250023,624.75 A 62.750004,62.249996 0 0 1 125.00003,562.5 M -0.24997362,624.75 A 125,125 0 0 1 124.75003,499.75" />
    <path
       id="rect1"
       style="stroke:#000000;stroke-width:0.547721"
       d="M 2.5431314e-5,937.5 H 375.00006 v 62.49999 H 2.5431314e-5 Z M 375.14192,968.53276 v -31.05544 h 1.89902 c 1.04444,0 3.27141,-0.17053 4.94882,-0.37894 15.21923,-1.89098 29.22193,-9.06695 39.24236,-20.11058 9.45094,-10.41601 15.36642,-24.23155 16.07667,-37.54686 l 0.20637,-3.86908 h 30.95241 30.95244 l -0.25341,5.11995 c -1.51554,30.61851 -13.62549,58.66582 -34.87296,80.76771 -22.33107,23.22904 -53.35487,37.02899 -85.46259,38.01533 l -3.68913,0.11335 z M 437.25003,875 a 62.750004,62.249996 0 0 1 -62.75,62.25 m 125.25,-62.25 a 125,125 0 0 1 -125,125" />
    <g
       id="g11"
       transform="rotate(-90,781.17737,218.87502)" />
    <path
       id="rect11"
       style="stroke:#000000;stroke-width:0.499999"
       d="m 562.49994,500 h 62.5 v 375 h -62.5 z m 117.67475,498.96539 c -33.06023,-2.6056 -61.5656,-16.0907 -83.30515,-39.40938 -19.61015,-21.03458 -31.83748,-49.05768 -33.29037,-76.29621 l -0.41275,-7.73818 h 30.65655 30.65656 l 0.41752,3.4192 c 0.89935,7.36494 2.77645,15.17163 4.8533,20.18436 4.39252,10.6019 13.07634,21.3284 22.3836,27.64884 8.94846,6.07679 22.03541,10.63665 30.56014,10.64802 l 3.77912,0.005 v 31.01734 31.01736 z m 7.37766,-61.663 a 62.249996,62.750004 0 0 1 -62.25,-62.75001 m 62.25,125.25 a 125,125 0 0 1 -125,-125" />
    <g
       id="g15"
       transform="rotate(180,531.17735,500.12502)" />
    <path
       id="rect15"
       style="stroke:#000000;stroke-width:0.499999"
       d="m 999.99994,500.00003 h 62.49996 v 375 h -62.49996 z m 61.26776,382.37767 c -2.6056,33.06023 -16.0907,61.5656 -39.4094,83.30515 -21.0346,19.61015 -49.05766,31.83748 -76.29619,33.29037 l -7.73818,0.41275 v -30.65655 -30.65656 l 3.4192,-0.41752 c 7.36494,-0.89935 15.17163,-2.77645 20.18436,-4.8533 10.6019,-4.39252 21.3284,-13.07634 27.64884,-22.3836 6.07679,-8.94846 10.63665,-22.03541 10.64802,-30.56014 l 0.005,-3.77912 h 31.01739 31.0173 z m -61.663,-7.37766 a 62.750004,62.249996 0 0 1 -62.75001,62.25 m 125.25001,-62.25 A 125,125 0 0 1 937.10469,1000 M 718.89459,969.0473 V 938.09454 H 828.19727 937.49995 V 969.0473 1000 H 828.19727 718.89459 Z" />
    <g
       id="g18"
       transform="translate(1124.9817,499.83655)" />
    <g
       id="g22"
       transform="rotate(-90,1062.3365,-62.447558)" />
    <path
       id="path23"
       style="fill:#000000;stroke:#000000;stroke-width:0.831654"
       d="m 1594.0689,562.78283 h 30.8552 v 187.04276 187.04276 h -30.8552 -30.8552 V 749.82559 562.78283 Z m 30.9652,374.75135 v 62.50002 h -375 v -62.50002 z m -382.3777,61.26776 c -33.0602,-2.60559 -61.5656,-16.0907 -83.3052,-39.40937 -19.6101,-21.03459 -31.8374,-49.05769 -33.2903,-76.29622 l -0.4128,-7.73818 h 30.6566 30.6565 l 0.4176,3.4192 c 0.8993,7.36494 2.7764,15.17163 4.8533,20.18436 4.3925,10.6019 13.0763,21.3284 22.3836,27.64884 8.9484,6.07679 22.0354,10.63665 30.5601,10.64803 l 3.7791,0.005 v 31.01734 31.01736 z m 7.3777,-61.663 a 62.249996,62.750004 0 0 1 -62.25,-62.75001 m 62.25,125.25 a 125,125 0 0 1 -125,-125 m 30.9527,-249.21231 h 30.931 v 124.79295 124.79295 h -30.931 -30.931 V 750.21957 625.42662 Z m 469.0473,-125.39244 v 62.5 h -375 v -62.5 z m -498.9654,117.67471 c 2.6056,-33.06023 16.0907,-61.5656 39.4094,-83.30515 21.0346,-19.61015 49.0577,-31.83748 76.2962,-33.29037 l 7.7382,-0.41275 v 30.65655 30.65656 l -3.4192,0.41752 c -7.365,0.89935 -15.1717,2.77645 -20.1844,4.8533 -10.6019,4.39252 -21.3284,13.07634 -27.6488,22.3836 -6.0768,8.94846 -10.6367,22.03541 -10.6481,30.56014 l -0.01,3.77912 h -31.0174 -31.0173 z m 61.663,7.37766 a 62.750004,62.249996 0 0 1 62.75,-62.25 m -125.25,62.25 a 125,125 0 0 1 125,-125" />
    <path
       id="path24"
       style="fill:#000000;stroke:#000000;stroke-width:0.831585"
       d="m 1125.4157,1374.979 v -30.8554 h 187.0116 187.0116 v 30.8554 30.8553 h -187.0116 -187.0116 z m 498.6019,-86.6013 c -2.6056,33.0603 -16.0907,61.5656 -39.4093,83.3052 -21.0346,19.6101 -49.0577,31.8375 -76.2963,33.2904 l -7.7381,0.4127 v -30.6565 -30.6566 l 3.4192,-0.4175 c 7.3649,-0.8994 15.1716,-2.7765 20.1843,-4.8533 10.6019,-4.3925 21.3284,-13.0764 27.6489,-22.3836 6.0768,-8.9485 10.6366,-22.0354 10.648,-30.5602 l 0,-3.7791 h 31.0174 31.0173 z m -61.663,-7.3776 a 62.750004,62.249996 0 0 1 -62.75,62.25 m 125.25,-62.25 a 125,125 0 0 1 -125,125 m 62.6453,-374.7501 h 62.5 v 250 h -62.5 z" />
    <g
       id="g27"
       transform="translate(1688.0638,499.72053)" />
    <g
       id="g34"
       transform="rotate(-90,1343.8195,-344.04662)" />
    <g
       id="g37"
       transform="rotate(90,844.04716,1343.9067)" />
    <g
       id="g48"
       transform="translate(1687.108,281.46726)" />
    <path
       id="rect50"
       style="stroke:#000000;stroke-width:0.407744"
       transform="rotate(90)"
       d="m 718.75,-2062.1917 h 62.5 v 249.3837 h -62.5 z m 31.25002,-0.3082 h -31.05544 v -1.899 c 0,-1.0445 -0.17053,-3.2714 -0.37894,-4.9488 -1.89098,-15.2193 -9.06695,-29.222 -20.11058,-39.2424 -10.41601,-9.4509 -24.23155,-15.3664 -37.54686,-16.0767 l -3.86908,-0.2063 v -30.9524 -30.9525 l 5.11995,0.2534 c 30.61851,1.5156 58.66582,13.6255 80.76771,34.873 23.22904,22.3311 37.02899,53.3549 38.01533,85.4626 l 0.11335,3.6891 z m -93.53276,-62.1081 a 62.249996,62.750004 0 0 1 62.25,62.75 m -62.25,-125.25 a 125,125 0 0 1 125,125 m -280.52072,-7.9735 c 2.6056,-33.0602 16.0907,-61.5656 39.40938,-83.3052 21.03458,-19.6101 49.05768,-31.8375 76.29621,-33.2903 l 7.73818,-0.4128 v 30.6566 30.6565 l -3.4192,0.4175 c -7.36494,0.8994 -15.17163,2.7765 -20.18436,4.8533 -10.6019,4.3926 -21.3284,13.0764 -27.64884,22.3836 -6.07679,8.9485 -10.63665,22.0354 -10.64802,30.5602 l -0.005,3.7791 h -31.01734 -31.01736 z m 61.663,7.3776 a 62.750004,62.249996 0 0 1 62.75001,-62.25 m -125.25,62.25 a 125,125 0 0 1 125,-125 m 312.33021,0.4537 h 62.45675 v 374.1121 h -62.45675 z m 61.24612,381.5117 c -2.6056,33.0603 -16.0907,61.5656 -39.40938,83.3052 -21.03458,19.6101 -49.05768,31.8375 -76.29621,33.2904 l -7.73818,0.4127 v -30.6565 -30.6566 l 3.4192,-0.4175 c 7.36494,-0.8994 15.17163,-2.7765 20.18436,-4.8533 10.6019,-4.3925 21.3284,-13.0764 27.64884,-22.3836 6.07679,-8.9485 10.63665,-22.0354 10.64802,-30.5602 l 0.005,-3.7791 h 31.01734 31.01736 z m -61.663,-7.3776 a 62.750004,62.249996 0 0 1 -62.75001,62.25 m 125.25,-62.25 a 125,125 0 0 1 -125,125 m -249.21227,-30.9528 v -30.931 H 750.10355 874.8965 v 30.931 30.931 H 750.10355 625.3106 Z M 499.91815,-2062.5 h 62.5 v 249.3837 h -62.5 z m 117.67472,373.3492 c -33.06023,-2.6056 -61.5656,-16.0907 -83.30515,-39.4094 -19.61015,-21.0346 -31.83748,-49.0577 -33.29037,-76.2962 l -0.41275,-7.7382 h 30.65655 30.65656 l 0.41752,3.4192 c 0.89935,7.365 2.77645,15.1717 4.8533,20.1844 4.39252,10.6019 13.07634,21.3284 22.3836,27.6488 8.94846,6.0768 22.03541,10.6367 30.56014,10.6481 l 3.77912,0 v 31.0174 31.0173 z m 7.37766,-61.663 a 62.249996,62.750004 0 0 1 -62.25,-62.75 m 62.25,125.25 a 125,125 0 0 1 -125,-125" />
  </g>
</svg>
